<svg xmlns="http://www.w3.org/2000/svg" viewBox="0 0 192 192" width="192" height="192">
  <defs>
    <linearGradient id="bgGrad192" x1="0%" y1="0%" x2="100%" y2="100%">
      <stop offset="0%" stop-color="#0F172A" />
      <stop offset="100%" stop-color="#020617" />
    </linearGradient>
    <linearGradient id="shieldGrad192" x1="0%" y1="0%" x2="100%" y2="100%">
      <stop offset="0%" stop-color="#10B981" />
      <stop offset="100%" stop-color="#0D9488" />
    </linearGradient>
  </defs>

  <rect width="192" height="192" rx="42" fill="url(#bgGrad192)" />
  <rect width="188" height="188" x="2" y="2" rx="40" fill="none" stroke="#1E293B" stroke-width="2" />

  <!-- Shield -->
  <path d="M96 28 L148 50 C148 106 96 148 96 160 C96 148 44 106 44 50 Z" fill="url(#shieldGrad192)" />
  <path d="M96 36 L140 55 C140 102 96 140 96 150 C96 140 52 102 52 55 Z" fill="#064E3B" opacity="0.35" />

  <!-- Medical Cross -->
  <path d="M85 62 H107 V82 H127 V104 H107 V124 H85 V104 H65 V82 H85 Z" fill="#FFFFFF" />

  <!-- Pulse line -->
  <path d="M72 93 H83 L89 80 L96 106 L103 86 L109 93 H120" fill="none" stroke="#0D9488" stroke-width="3.5" stroke-linecap="round" stroke-linejoin="round" />
  
  <text x="96" y="174" font-family="system-ui, -apple-system, sans-serif" font-size="10" font-weight="900" fill="#34D399" text-anchor="middle" letter-spacing="1">SURGERY RU</text>
</svg>
